solid housing_cap
  facet normal 0 0 1
    outer loop
      vertex 0 0 0
      vertex 40 0 0
      vertex 40 40 0
    endloop
  endfacet
  facet normal 0 0 1
    outer loop
      vertex 0 0 0
      vertex 40 40 0
      vertex 0 40 0
    endloop
  endfacet
  facet normal 0 0 -1
    outer loop
      vertex 0 0 10
      vertex 0 40 10
      vertex 40 40 10
    endloop
  endfacet
  facet normal 0 0 -1
    outer loop
      vertex 0 0 10
      vertex 40 40 10
      vertex 40 0 10
    endloop
  endfacet
endsolid housing_cap

