solid pulse_chamber_ring
  facet normal 0 0 1
    outer loop
      vertex 20 20 0
      vertex 60 20 0
      vertex 60 60 0
    endloop
  endfacet
  facet normal 0 0 1
    outer loop
      vertex 20 20 0
      vertex 60 60 0
      vertex 20 60 0
    endloop
  endfacet
  facet normal 0 0 -1
    outer loop
      vertex 20 20 10
      vertex 20 60 10
      vertex 60 60 10
    endloop
  endfacet
  facet normal 0 0 -1
    outer loop
      vertex 20 20 10
      vertex 60 60 10
      vertex 60 20 10
    endloop
  endfacet
endsolid pulse_chamber_ring

