solid pulse_bridge_vibration_mount
  facet normal 0 0 1
    outer loop
      vertex 5 5 0
      vertex 35 5 0
      vertex 35 35 0
    endloop
  endfacet
  facet normal 0 0 1
    outer loop
      vertex 5 5 0
      vertex 35 35 0
      vertex 5 35 0
    endloop
  endfacet
  facet normal 0 0 -1
    outer loop
      vertex 5 5 5
      vertex 5 35 5
      vertex 35 35 5
    endloop
  endfacet
  facet normal 0 0 -1
    outer loop
      vertex 5 5 5
      vertex 35 35 5
      vertex 35 5 5
    endloop
  endfacet
endsolid pulse_bridge_vibration_mount

